<?xml version="1.0" encoding="UTF-8" standalone="no"?>
<!-- Created with Inkscape (http://www.inkscape.org/) -->

<svg
   version="1.1"
   id="svg2"
   width="128"
   height="128"
   viewBox="0 0 128 128"
   xmlns="http://www.w3.org/2000/svg"
   xmlns:svg="http://www.w3.org/2000/svg">
  <defs
     id="defs6" />
  <g
     id="g8">
    <path
       style="fill:#000000;stroke-width:0.32"
       d="m 15.546002,122.56129 c -2.6257,-0.33821 -5.711971,-0.85016 -6.8583812,-1.13767 -1.3754928,-0.34496 -2.6395338,-0.45338 -3.7167213,-0.3188 -1.4538579,0.18165 -1.7118521,0.11931 -2.3595474,-0.57013 -0.6706443,-0.71387 -0.721949,-1.03234 -0.6595885,-4.09438 0.037191,-1.82616 -0.049381,-7.42429 -0.1923814,-12.44029 C 1.1505006,82.642448 1.5885393,67.196167 3.0661579,57.920011 3.8641328,52.910507 3.919641,51.779344 4.1496624,35.840006 4.3439776,22.374954 4.5022774,18.341251 4.9471075,15.520002 5.3005261,13.278514 5.4335126,11.232754 5.3132464,9.8876142 5.0223014,6.6334911 5.078696,6.6063583 11.984061,6.6781143 c 1.860414,0.019331 3.228034,0.2024782 3.902715,0.5226351 0.571259,0.2710803 2.179144,0.6358791 3.573077,0.8106635 2.319081,0.2907882 2.897916,0.2358305 6.812444,-0.6468113 2.352912,-0.5305308 4.736569,-0.9646012 5.297016,-0.9646012 0.560447,0 1.858626,-0.203231 2.884841,-0.4516244 1.026214,-0.2483934 4.315088,-0.5367531 7.308608,-0.6407989 2.993516,-0.1040457 7.025516,-0.3444692 8.96,-0.5342734 C 54.900707,4.3633791 84.507594,4.6572892 89.44,5.157653 c 1.76,0.1785417 5.072,0.7364379 7.36,1.2397688 2.288,0.503331 6.104,1.1489503 8.48,1.4347101 2.376,0.2857594 5.472,0.8138104 6.88,1.1734466 1.77436,0.4532142 3.48448,0.6427525 5.57241,0.6176119 2.69341,-0.032431 3.09196,0.03846 3.7636,0.6694276 1.16232,1.091948 1.45627,2.847609 1.3837,8.264497 -0.0517,3.861811 0.1183,6.311813 0.76639,11.042891 0.45808,3.343999 0.92047,6.296 1.02754,6.56 0.10705,0.264001 0.31889,2.352002 0.47074,4.640001 0.15185,2.288001 0.4159,4.880001 0.58678,5.760002 0.41453,2.134785 0.43193,10.272325 0.0322,15.040003 -0.1771,2.112 -0.46517,6.000002 -0.64018,8.640002 -0.61547,9.28461 -1.2283,16.07024 -1.75012,19.378321 -0.28991,1.837927 -0.80363,5.069684 -1.1416,7.181685 -1.12683,7.04167 -1.32017,9.55476 -1.22464,15.91775 0.0786,5.23695 0.0143,6.39257 -0.37596,6.75511 -0.34336,0.31896 -2.50668,0.54001 -7.99082,0.81647 -4.136,0.20852 -10.76,0.66077 -14.72,1.00498 -6.070422,0.52767 -10.889955,0.64802 -30.72,0.76719 -12.936,0.0777 -25.392,0.28503 -27.68,0.46067 -2.288,0.17563 -7.544,0.39464 -11.68,0.48669 -6.257453,0.13923 -8.321516,0.0641 -12.293998,-0.44759 z M 38.24,118.988 c 2.464,-0.18637 14.92,-0.39325 27.68,-0.45971 19.680522,-0.10249 24.365069,-0.2179 30.88,-0.76069 7.39837,-0.61639 17.6507,-1.28758 19.66763,-1.28758 H 117.44 v -5.84839 c 0,-6.0018 0.20517,-8.43936 1.27195,-15.111611 0.33768,-2.112 0.85116,-5.343758 1.14107,-7.181685 0.52182,-3.30808 1.13465,-10.09371 1.75012,-19.378321 0.17501,-2.64 0.46308,-6.528001 0.64018,-8.640001 0.39651,-4.728804 0.38204,-10.346956 -0.0322,-12.480003 -0.17088,-0.880001 -0.43493,-3.472001 -0.58678,-5.760001 -0.15185,-2.288 -0.36202,-4.376001 -0.46705,-4.640001 -0.10502,-0.264001 -0.58307,-3.216001 -1.06233,-6.560001 -0.69889,-4.876477 -0.85501,-7.030153 -0.78867,-10.880002 0.0455,-2.640001 0.003,-5.238574 -0.094,-5.774606 l -0.17675,-0.974604 -2.79777,-0.0077 C 114.41922,13.238088 112.544,12.996746 110.88,12.553545 109.472,12.178528 106.376,11.637892 104,11.352132 101.624,11.066374 97.808,10.420753 95.52,9.9174225 93.232,9.4140916 89.92,8.857399 88.16,8.6803276 83.304019,8.1917741 55.826448,7.9064045 51.853619,8.3032661 c -1.840509,0.1838557 -5.800509,0.4196039 -8.8,0.5238846 -2.999491,0.1042804 -6.293251,0.3928326 -7.319465,0.641226 -1.026215,0.2483934 -2.324394,0.4516244 -2.884842,0.4516244 -0.560445,0 -2.934921,0.4319999 -5.276609,0.9599999 -2.341688,0.528 -5.003509,0.957148 -5.915159,0.953661 -2.342846,-0.009 -5.881433,-0.560847 -7.058732,-1.100901 C 13.446201,10.204032 11.498754,10.065005 10,10.404454 c -1.020289,0.231083 -1.040215,0.269662 -1.0513494,2.035548 -0.00624,0.99 -0.2372285,3.096 -0.5133031,4.680001 C 8.0491997,19.335558 7.875375,23.912848 7.6819149,36.960007 7.4431744,53.060938 7.3877526,54.187457 6.5877658,59.200011 4.9644205,69.37156 4.5580608,90.966575 5.5896966,112.24002 l 0.252169,5.2 h 1.1386227 c 0.6262426,0 2.0235235,0.22193 3.1050687,0.49316 1.081545,0.27125 4.114745,0.76977 6.740445,1.10781 5.147465,0.66271 12.182104,0.64531 21.413998,-0.053 z M 45.872662,97.272167 C 43.606509,97.033443 41.427062,96.477998 40.789283,95.976633 40.032598,95.381798 33.063981,92.407606 29.701739,91.244496 24.401839,89.411084 22.228388,88.260044 19.310956,85.74163 15.80854,82.71824 12.16,77.964931 12.16,76.425379 c 0,-0.719774 0.230955,-1.335182 0.64,-1.705364 0.352,-0.318558 0.64,-0.750557 0.64,-0.96 0,-1.357453 4.156035,-2.833348 9.918039,-3.5221 C 30.408622,69.395131 35.711818,69.801479 40,71.513073 c 4.814864,1.921812 7.299914,2.468411 12.00065,2.639601 3.806051,0.138608 4.986428,0.05747 7.84,-0.538921 3.521436,-0.735976 7.060243,-1.142727 13.804598,-1.586712 2.224886,-0.146467 4.183827,-0.351949 4.353203,-0.456627 0.540125,-0.333814 9.663114,-1.810401 11.18545,-1.810401 0.805574,0 3.088995,-0.169314 5.074272,-0.376255 4.073936,-0.42466 6.465217,-0.143939 10.701827,1.256324 2.57483,0.85102 3.84,1.746214 3.84,2.717066 0,0.95863 -1.48681,2.660243 -3.95842,4.530291 -1.25487,0.949447 -2.71358,2.187567 -3.24158,2.751378 -0.528,0.563807 -1.608,1.464719 -2.4,2.002026 -0.792,0.537302 -1.774438,1.386924 -2.183194,1.888044 -0.408755,0.501119 -1.034524,0.91113 -1.390601,0.91113 -0.356074,0 -1.029639,0.260947 -1.496807,0.579882 -0.467168,0.318934 -2.783436,1.563388 -5.14726,2.765453 -4.136765,2.103648 -4.65049,2.2734 -13.705284,4.528699 -5.174076,1.28872 -11.376038,2.641494 -13.782134,3.006163 C 59.088624,96.684883 56.616,97.121219 56,97.28985 c -1.276864,0.349543 -6.731738,0.340015 -10.127338,-0.0177 z m 6.492925,-5.15909 C 52.252515,91.03126 52.16,88.961864 52.16,87.514424 v -2.631712 l -2.238272,-0.220554 c -1.23105,-0.121306 -4.43505,-0.774129 -7.12,-1.450721 -2.68495,-0.676595 -5.454582,-1.27917 -6.154739,-1.339063 l -1.273008,-0.108893 -0.357984,2.182493 c -0.19689,1.200374 -0.290285,2.536641 -0.207543,2.969481 0.08794,0.460011 -0.06269,1.022494 -0.36254,1.353825 -0.479367,0.529693 -0.434768,0.594938 0.68055,0.995588 0.656445,0.235807 2.777536,1.180682 4.713536,2.099716 1.936,0.919033 3.865834,1.778604 4.288515,1.910162 0.912429,0.283985 4.673975,0.700676 6.877072,0.761818 l 1.565584,0.04345 z M 61.92,92.4948 c 2.112,-0.342976 6.072,-1.188625 8.8,-1.879214 5.65633,-1.431888 5.384976,-1.157462 4.970595,-5.0269 l -0.207104,-1.933914 -4.221747,0.589322 c -2.595168,0.362262 -6.427638,0.610306 -9.947094,0.643792 l -5.725348,0.05448 0.20057,3.730205 c 0.243379,4.526363 0.324541,4.78539 1.439072,4.592853 C 57.697024,93.184557 59.808,92.837779 61.92,92.4948 Z m 20.007293,-4.686593 c 0.947901,-0.281496 3.854035,-1.597067 6.45808,-2.923489 C 93.043398,82.512059 93.12,82.455927 93.12,81.415415 c 0,-0.581697 -0.144458,-1.146909 -0.321021,-1.256028 -0.17656,-0.109119 -1.50856,0.162517 -2.96,0.60364 -2.693558,0.818631 -8.882941,2.11699 -10.091865,2.11699 -0.633687,0 -0.6608,0.125334 -0.50186,2.32 0.257549,3.556292 0.07786,3.38155 2.682039,2.60819 z m -50.57988,-6.215969 c -0.18641,-0.115209 -1.663837,-0.458955 -3.283171,-0.763883 -1.619333,-0.304927 -4.427556,-0.913197 -6.240495,-1.351709 -1.812939,-0.438515 -3.540939,-0.749465 -3.84,-0.691001 -0.399839,0.07817 0.133784,0.792857 2.016253,2.700409 2.616673,2.651541 5.24081,4.278136 8.96,5.553947 l 1.6,0.548854 0.563171,-2.893574 c 0.387049,-1.988659 0.457177,-2.959083 0.224242,-3.103043 z m 39.016465,-0.977227 c 2.532132,-0.327846 4.643005,-0.636339 4.690829,-0.685538 0.04783,-0.0492 0.0069,-1.079474 -0.0909,-2.289493 l -0.177859,-2.200039 -2.112973,0.205108 c -1.162137,0.112803 -3.480975,0.3355 -5.152975,0.494873 -1.672,0.159373 -4.459853,0.589096 -6.195226,0.954932 -1.735372,0.36584 -3.643372,0.665161 -4.24,0.665161 H 56 v 1.745379 1.74538 l 2.16,0.109628 c 3.174394,0.161106 7.013594,-0.07338 12.203878,-0.745391 z M 52.48,79.566546 v -1.713465 l -3.12,-0.186628 c -3.17001,-0.189619 -6.618006,-1.038265 -10.615402,-2.612736 -1.13047,-0.445261 -2.088572,-0.7745 -2.129116,-0.731635 -0.04055,0.04286 -0.175031,0.896515 -0.298858,1.897005 l -0.225139,1.819076 1.234259,0.187466 C 38.004586,78.328739 41.008,78.985145 44,79.684313 c 8.839098,2.065518 8.48,2.070504 8.48,-0.117767 z M 99.680294,77.759541 C 99.878173,77.439365 98.99657,77.663865 98.4,78.085568 c -0.176,0.124409 -0.702675,0.317456 -1.17039,0.428988 -0.651239,0.155299 -0.811648,0.350937 -0.684964,0.835392 0.156669,0.599095 0.23898,0.581997 1.554064,-0.322806 0.763751,-0.525472 1.475463,-1.095895 1.581584,-1.267601 z M 83.2,78.563402 c 1.672,-0.308916 4.085274,-0.904052 5.362832,-1.322526 1.277558,-0.418473 2.529059,-0.760861 2.781114,-0.760861 0.695584,0 0.850345,-0.472858 0.622041,-1.900586 -0.205328,-1.284058 -0.223942,-1.299414 -1.575088,-1.299414 -1.384352,0 -7.681699,0.980195 -10.470899,1.629817 -1.659914,0.386602 -1.667587,0.404103 -1.312634,2.99377 0.18162,1.325047 0.290893,1.494816 0.88,1.367187 C 79.857315,79.190643 81.528,78.872317 83.2,78.563402 Z M 32.443632,76.880015 c 0.613747,-3.09545 0.609309,-3.180813 -0.176358,-3.391179 C 31.856273,73.378792 30.872,73.288095 30.08,73.287289 c -2.463294,-0.0026 -9.577037,0.939984 -10.654423,1.41159 L 18.4,75.147807 l 0.992249,0.02612 c 0.545736,0.01437 1.409736,0.171027 1.92,0.348157 1.164024,0.404077 9.326143,2.156393 10.262325,2.203213 0.514588,0.02574 0.739788,-0.193306 0.869058,-0.845268 z M 97.877328,74.197348 C 98.780797,73.821887 99.52,73.398708 99.52,73.256959 c 0,-0.433658 -2.756902,-0.705342 -3.441194,-0.33912 -0.457001,0.244578 -0.59102,0.566377 -0.479292,1.150845 0.187795,0.982387 0.219257,0.984163 2.277814,0.128664 z M 63.539994,63.062106 c -0.503082,-0.555898 -0.529354,-0.989152 -0.261783,-4.31714 0.227613,-2.831038 0.433959,-3.850107 0.879197,-4.342091 0.730918,-0.807655 1.818858,-0.824679 2.529363,-0.03958 0.490717,0.542241 0.512912,0.983825 0.219347,4.36403 -0.34822,4.009546 -0.749289,4.952688 -2.106118,4.952688 -0.385443,0 -0.952448,-0.278058 -1.260006,-0.617907 z M 92.16,54.091108 c -5.857312,-0.336758 -9.703213,-1.672967 -14,-4.864123 -1.87703,-1.394038 -2.212931,-2.565489 -1.04,-3.626976 0.352,-0.318557 0.64,-0.905654 0.64,-1.304659 0,-0.855163 1.810582,-2.505743 4.138419,-3.772712 2.672794,-1.454717 8.576375,-2.754679 12.501581,-2.752839 4.805549,0.0023 8.82673,0.489734 11.02442,1.336467 2.4222,0.933229 7.53558,5.620484 7.53558,6.907595 0,0.592954 -0.84335,1.612692 -3.28,3.966034 -1.804,1.742316 -3.712,3.409882 -4.24,3.705699 -1.11352,0.62386 -6.579322,0.790763 -13.28,0.405514 z M 103.29399,50.4233 c 0.75916,-0.267848 2.11879,-1.268343 3.28784,-2.419384 l 1.99338,-1.962669 -1.31703,-1.341958 c -1.69699,-1.729108 -4.22601,-2.724084 -7.89818,-3.107335 -4.715757,-0.492167 -6.766746,-0.372106 -10.774426,0.63072 -3.913808,0.979334 -4.965203,1.411297 -7.264796,2.984691 l -1.39922,0.95736 1.71922,1.075895 c 3.030089,1.896243 7.217532,3.073729 11.799222,3.317872 6.82928,0.363908 8.50453,0.340926 9.85399,-0.135192 z M 45.28,52.320967 C 45.104,52.240548 42.368,52.044461 39.2,51.885214 33.574221,51.602427 33.3832,51.569575 31.002523,50.475428 28.136735,49.158329 25.92,47.303052 25.92,46.221657 c 0,-0.409133 0.134518,-0.827014 0.29893,-0.928627 0.164411,-0.101606 0.221294,-0.663166 0.126405,-1.247895 -0.151759,-0.935185 -0.0275,-1.182695 1.03239,-2.056343 3.309642,-2.728087 8.68456,-4.548785 13.428547,-4.548785 2.59153,0 3.428614,0.140874 5.524051,0.929654 1.358323,0.511312 3.267392,1.217962 4.242378,1.57033 3.564147,1.288123 7.667299,4.718731 7.667299,6.410565 0,0.826483 -4.059197,4.341201 -6.08,5.264459 -1.354509,0.618845 -6.02239,1.097814 -6.88,0.705952 z m 4,-3.702072 c 1.305354,-0.295036 4.477875,-2.111692 4.479382,-2.564996 6.4e-4,-0.238072 -3.037948,-2.21389 -3.404892,-2.21389 -0.151856,0 -1.964052,-0.648001 -4.027098,-1.440001 -4.341811,-1.666813 -5.97864,-1.803248 -9.611443,-0.801156 -4.126336,1.138234 -7.423393,3.14593 -6.806211,4.144551 0.09428,0.152551 1.287159,0.745566 2.650841,1.317812 2.33977,0.981847 2.794839,1.055959 8.079421,1.315808 3.08,0.151447 5.744,0.333208 5.92,0.403911 0.541101,0.21737 1.220397,0.176903 2.72,-0.162039 z"
       id="path170" />
  </g>
</svg>
