<?xml version="1.0" encoding="UTF-8" standalone="no"?>
<!-- Created with Inkscape (http://www.inkscape.org/) -->

<svg
   version="1.1"
   id="svg2"
   width="128"
   height="128"
   viewBox="0 0 128 128"
   xmlns="http://www.w3.org/2000/svg"
   xmlns:svg="http://www.w3.org/2000/svg">
  <defs
     id="defs6" />
  <g
     id="g8">
    <path
       style="fill:#000000;stroke-width:0.320001"
       d="M 58.72,105.08008 C 46.422259,103.8734 42.221395,102.88324 35.84,99.687202 29.897317,96.710883 15.865864,86.4606 12.843664,82.887872 10.676911,80.326419 9.28,77.810192 9.28,76.468715 c 0,-1.291219 0.763589,-2.228436 1.815601,-2.228436 0.733715,0 1.704399,0.936305 1.704399,1.644033 0,0.725803 2.137405,4.127247 3.460039,5.50627 3.109637,3.242216 15.64035,12.132413 20.699961,14.686055 6.626672,3.344553 10.675933,4.288543 23.68,5.520433 9.58281,0.90778 13.912675,0.45607 21.280982,-2.220148 5.598192,-2.033299 7.038298,-2.745662 11.642496,-5.759065 1.956087,-1.280241 5.500522,-3.516915 7.876522,-4.970386 4.48965,-2.746452 10.47225,-7.030506 11.81578,-8.461105 1.31255,-1.397614 3.54422,-0.785252 3.54422,0.972525 0,1.301012 -6.43286,6.330618 -14.08,11.008602 -2.376,1.45347 -5.920435,3.690144 -7.876522,4.970384 -4.604198,3.013403 -6.044304,3.725763 -11.642496,5.759063 -7.408611,2.69086 -13.641699,3.2467 -24.480982,2.18314 z M 87.804339,41.630556 C 86.461757,40.811866 85.44,39.307668 85.44,38.149842 c 0,-0.523283 -0.216,-1.130687 -0.48,-1.349789 -0.611146,-0.507209 -0.62561,-2.634861 -0.02566,-3.775914 0.65895,-1.253281 3.013808,-3.411296 4.572918,-4.19067 C 90.33759,28.418397 91.468118,28.16 92.453782,28.16 c 1.410576,0 1.748032,0.141583 2.860055,1.200007 1.085385,1.033067 1.292755,1.456286 1.490614,3.042178 0.12641,1.013194 0.170637,2.771848 0.09829,3.90812 -0.109062,1.712808 -0.297488,2.270977 -1.102314,3.265374 -2.007443,2.480278 -5.729744,3.436853 -7.99608,2.054877 z M 33.077894,39.562176 C 32.179958,38.664233 31.68,37.880827 31.68,37.371758 c 0,-0.435883 -0.288,-1.053151 -0.64,-1.371711 -1.061757,-0.960883 -0.825186,-2.398779 0.74445,-4.524824 1.825713,-2.472895 2.203288,-2.747683 3.986168,-2.901027 1.787232,-0.153724 3.034761,0.501364 4.42438,2.323262 0.74882,0.98176 0.931063,1.580067 1.033504,3.393028 0.152557,2.699936 -0.22808,3.695835 -2.056844,5.381546 -1.254864,1.156698 -1.56554,1.288046 -3.046615,1.288046 -1.520646,0 -1.758262,-0.109017 -3.047149,-1.397902 z"
       id="path170" />
  </g>
</svg>
