<?xml version="1.0" encoding="UTF-8" standalone="no"?>
<!-- Created with Inkscape (http://www.inkscape.org/) -->

<svg
   version="1.1"
   id="svg2"
   width="128"
   height="128"
   viewBox="0 0 128 128"
   xmlns="http://www.w3.org/2000/svg"
   xmlns:svg="http://www.w3.org/2000/svg">
  <defs
     id="defs6" />
  <g
     id="g8">
    <path
       style="fill:#000000;stroke-width:0.319999"
       d="M 86.360237,96.399548 C 85.359917,95.298516 84.8,94.0052 84.8,92.79565 c 0,-1.948666 3.445421,-4.578762 6.556835,-5.005226 1.354755,-0.185689 1.502944,-0.126326 2.718023,1.088738 1.132518,1.132513 1.285142,1.462246 1.285142,2.77648 0,1.336352 -0.156925,1.659111 -1.509926,3.105569 -1.917376,2.049816 -2.842807,2.518332 -4.974314,2.518332 -1.46487,0 -1.833034,-0.128794 -2.515523,-0.879995 z M 29.197075,96.001279 c -1.427747,-0.870503 -2.314429,-2.432911 -2.315879,-4.080778 -9.92e-4,-1.109282 0.20839,-1.591054 1.139148,-2.621285 1.291757,-1.429811 3.370279,-2.357644 4.936635,-2.203667 1.326986,0.130439 2.69073,1.735552 3.240234,3.813711 0.351584,1.329655 0.319933,1.611518 -0.332247,2.958732 -0.39647,0.818989 -1.087699,1.777631 -1.536064,2.130315 -1.105347,0.869459 -3.708193,0.870966 -5.131827,0.0029 z M 9.8095962,53.814645 C 8.5912736,52.468425 9.0174912,51.798262 13.907688,47.371033 20.503027,41.400091 26.401603,37.664932 34.24,34.495991 c 1.972541,-0.797469 3.111882,-1.021186 6.396909,-1.256084 2.198301,-0.157189 5.072144,-0.507893 6.386323,-0.779341 C 51.353216,31.566187 60.008243,30.984712 69.44,30.954524 80.7164,30.918431 83.716374,31.355263 89.944333,33.940198 92.13095,34.847762 95,36.032131 96.32,36.572134 c 2.881926,1.178974 7.7298,4.225196 9.28,5.831208 0.616,0.638175 1.63536,1.451142 2.26525,1.806595 1.68443,0.950541 5.73475,5.492576 5.73475,6.430961 0,0.918992 -1.22392,2.158951 -2.13103,2.158951 -0.74329,0 -1.70897,-0.936275 -1.70897,-1.656939 0,-1.259092 -10.335101,-9.329996 -13.44,-10.495588 -0.616,-0.231249 -2.632,-1.065714 -4.48,-1.854365 -6.824205,-2.912293 -6.880384,-2.930969 -11.04,-3.669933 -3.27095,-0.58109 -4.978099,-0.676412 -11.52,-0.64323 -8.105482,0.04111 -16.986099,0.676455 -20.976768,1.500747 -1.314179,0.271448 -4.188022,0.622152 -6.386323,0.779342 -3.287341,0.235064 -4.422979,0.458234 -6.396909,1.257092 -4.671164,1.890448 -6.913517,3.045903 -11.192576,5.767395 -3.875552,2.464859 -6.214565,4.377969 -11.246404,9.198576 -1.599683,1.532529 -2.44312,1.746958 -3.2714238,0.831699 z"
       id="path170" />
  </g>
</svg>
