<?xml version="1.0" encoding="UTF-8" standalone="no"?>
<!-- Created with Inkscape (http://www.inkscape.org/) -->

<svg
   version="1.1"
   id="svg2"
   width="128"
   height="128"
   viewBox="0 0 128 128"
   xmlns="http://www.w3.org/2000/svg"
   xmlns:svg="http://www.w3.org/2000/svg">
  <defs
     id="defs6" />
  <g
     id="g8">
    <path
       style="fill:#000000;stroke-width:0.320001"
       d="M 55.04,99.633609 C 50.111782,99.02422 42.344915,95.713835 37.021056,91.953592 35.039354,90.553916 31.419248,86.227583 31.058835,84.828229 29.496668,78.762912 29.302447,77.504017 29.326591,73.600231 c 0.01361,-2.200012 0.196226,-5.440027 0.40582,-7.200036 0.377984,-3.174019 0.391993,-3.209886 1.724335,-4.414736 L 32.8,60.770737 l 2.24,0.254716 c 2.875926,0.32703 34.584166,0.127543 37.12,-0.233524 2.135155,-0.304023 10.69983,-1.799345 12.091213,-2.111031 C 85.364202,58.431578 86.4,59.275796 86.4,60.43225 c 0,0.447095 0.381245,1.210836 0.847213,1.697203 0.716784,0.748164 0.870288,1.243873 0.997104,3.219952 0.228243,3.556536 -0.357779,6.455939 -2.577264,12.751294 -1.521405,4.315317 -3.290346,6.83635 -8.409635,11.985108 -3.675284,3.696442 -8.722676,7.834545 -9.556074,7.834545 -0.106733,0 -0.8032,0.390034 -1.547702,0.86674 -1.284752,0.822629 -1.573492,0.86975 -5.673642,0.925875 -2.376,0.03252 -4.824,-0.0032 -5.44,-0.07935 z m 10.08,-4.5301 c 1.721888,-0.907313 4.677072,-2.862642 5.832442,-3.859094 0.677772,-0.584544 0.690608,-0.68233 0.263779,-2.00928 -0.469879,-1.460788 -1.357325,-23.658308 -0.970845,-24.283646 0.119686,-0.193654 -0.993869,-0.311304 -2.946554,-0.311304 h -3.13895 l -0.547059,1.840011 c -0.547591,1.841797 -0.636787,2.816506 -1.201504,13.129402 -0.166528,3.041152 -0.452151,6.353169 -0.63472,7.360037 -0.18257,1.00687 -0.368989,3.532142 -0.414266,5.611718 L 61.28,96.362395 62.4,96.154498 c 0.616,-0.114344 1.84,-0.587288 2.72,-1.050989 z m -7.405392,-0.303173 c 0.109091,-0.660002 0.199933,-2.656359 0.201869,-4.436345 0.0019,-1.779986 0.153056,-4.011997 0.335814,-4.960024 0.182762,-0.948029 0.473997,-4.243699 0.647191,-7.323714 0.441452,-7.850625 0.811884,-12.225991 1.09047,-12.880064 0.219158,-0.514545 -0.0565,-0.559801 -3.395715,-0.557501 l -3.634237,0.0026 -0.05657,1.51751 c -0.05485,1.471294 -2.205689,13.675815 -2.49168,14.138563 -0.0781,0.126358 -0.432713,2.162347 -0.788032,4.524404 -0.355318,2.362053 -0.794009,4.797697 -0.974873,5.41254 -0.180867,0.6148 -0.328845,1.725022 -0.328845,2.467125 0,1.314957 0.03459,1.358855 1.36,1.725971 0.748,0.20718 2.224,0.636877 3.28,0.954875 1.056,0.317998 2.513158,0.586268 3.238131,0.596153 1.278851,0.01745 1.324042,-0.01779 1.516477,-1.182032 z M 44.878336,90.800317 c 0.187811,-1.788967 1.402646,-8.766627 2.01961,-11.600059 0.876377,-4.024803 2.379488,-12.459691 2.380787,-13.360066 L 49.28,64.960188 h -3.64368 -3.64368 l -0.19479,1.040005 c -0.492109,2.627402 -1.217101,8.400662 -1.456714,11.600057 -0.144992,1.936011 -0.437014,4.240022 -0.648934,5.120026 -0.211924,0.880004 -0.486791,2.629472 -0.610816,3.887703 l -0.225508,2.287699 2.732061,1.629232 c 1.502634,0.896078 2.825562,1.630624 2.93984,1.632322 0.114275,0.0016 0.272026,-0.608912 0.350557,-1.356915 z m 34.4196,-8.14054 c 0.405866,-0.593088 1.074714,-1.758108 1.48633,-2.588932 l 0.74839,-1.510589 -0.624784,-3.040015 C 80.56424,73.848232 80.079277,71.328219 79.830179,69.920212 79.581082,68.512206 79.13072,66.486499 78.829373,65.418641 l -0.547901,-1.941562 -2.289088,0.455487 -2.289088,0.455491 0.07962,3.886083 c 0.183591,8.960978 0.501994,18.026561 0.662442,18.861108 0.171014,0.889503 0.184067,0.881881 2.143353,-1.251091 1.084208,-1.180322 2.30336,-2.631295 2.709226,-3.22438 z M 36.000758,82.400275 c 0.303357,-1.408007 0.662074,-4.072021 0.797143,-5.92003 0.135072,-1.848009 0.477549,-5.14928 0.761056,-7.336154 0.28351,-2.186876 0.475936,-4.015678 0.427609,-4.064005 -0.04833,-0.04832 -1.039052,-0.185317 -2.201612,-0.304425 l -2.113744,-0.21656 -0.20834,1.560548 c -0.494035,3.700566 -0.715238,8.089518 -0.489916,9.720593 0.56646,4.100562 1.994822,9.644083 2.377574,9.227455 0.05427,-0.05908 0.346874,-1.259416 0.65023,-2.667422 z M 84.583075,67.316776 c 0.0444,-1.781159 -0.06626,-2.420208 -0.503075,-2.905212 -0.308,-0.341976 -0.56,-0.862439 -0.56,-1.156582 0,-0.511074 -0.954678,-0.753462 -1.362266,-0.345874 -0.10391,0.103918 -0.0029,0.71595 0.224276,1.360084 0.22726,0.644133 0.58559,2.251125 0.796284,3.571087 0.210698,1.319964 0.460196,2.615935 0.554445,2.879937 0.316512,0.886575 0.790704,-1.011368 0.850336,-3.40344 z M 86.743226,37.236893 C 86.245027,36.603533 86.08,35.930903 86.08,34.533654 c 0,-1.845967 0.01523,-1.875993 2.005978,-3.956866 1.734886,-1.813421 2.159801,-2.096784 3.14422,-2.096784 2.581152,0 3.439172,3.24079 1.618224,6.11214 -2.00664,3.164158 -4.758822,4.356393 -6.105196,2.644749 z M 32.642006,36.432032 C 31.278337,34.549533 31.421436,32.147451 33.044851,29.669791 33.72713,28.628497 35.793066,27.52 37.051472,27.52 c 3.221523,0 3.075904,6.10514 -0.214707,9.001667 -1.920435,1.690444 -2.920765,1.669069 -4.194759,-0.08964 z"
       id="path170" />
  </g>
</svg>
