<?xml version="1.0" encoding="UTF-8" standalone="no"?>
<!-- Created with Inkscape (http://www.inkscape.org/) -->

<svg
   version="1.1"
   id="svg2"
   width="128"
   height="128"
   viewBox="0 0 128 128"
   xmlns="http://www.w3.org/2000/svg"
   xmlns:svg="http://www.w3.org/2000/svg">
  <defs
     id="defs6" />
  <g
     id="g8">
    <path
       style="fill:#000000;stroke-width:0.320001"
       d="M 58.24,94.264727 C 54.728154,93.713521 52.793968,92.943369 44.64,88.849501 L 37.92,85.47559 34.66567,82.177956 c -1.991059,-2.017555 -4.323534,-4.850365 -6.008732,-7.297657 -2.281333,-3.313012 -2.917788,-4.519967 -3.705672,-7.02732 -1.272854,-4.050716 -1.244644,-4.716389 0.262226,-6.187817 0.667421,-0.651721 1.509103,-1.18495 1.870404,-1.18495 0.684345,0 1.716104,0.914136 1.716104,1.520462 0,0.730863 3.55367,3.342991 5.976205,4.392815 3.226275,1.398131 5.081789,2.408088 8.263795,4.497983 2.350826,1.54399 7.851882,4.638741 11.36,6.390845 2.687152,1.342074 6.839165,2.162448 11.04,2.181327 5.882333,0.02643 9.429117,-1.104021 14.823731,-4.724737 5.167811,-3.468491 7.917434,-5.801882 9.827613,-8.339929 2.374435,-3.154909 6.113907,-6.550511 7.219059,-6.555229 0.909101,-0.0039 1.889597,0.869302 1.889597,1.68278 0,0.283758 0.144,0.604919 0.32,0.713693 0.82272,0.508471 0.07827,2.871717 -1.500317,4.762759 -0.423651,0.507503 -1.06496,1.500371 -1.425133,2.206372 -0.360172,0.706001 -1.344953,2.234781 -2.188406,3.39729 -0.84345,1.16251 -1.896851,2.869599 -2.34089,3.793532 -0.444038,0.923932 -1.9895,3.252252 -3.434364,5.174042 -1.997837,2.657302 -3.173552,3.880962 -4.908954,5.109139 C 82.46687,87.571589 80.864,88.714285 80.16,89.222671 c -2.244358,1.620753 -7.127638,3.866174 -10.24,4.708541 -2.581898,0.698794 -8.31056,0.862374 -11.68,0.333515 z m 10.379971,-3.868692 c 1.044983,-0.274315 2.527402,-0.776296 3.294259,-1.115518 l 1.394292,-0.616762 -0.508589,-0.983506 C 72.238432,86.594418 72.12897,86.590456 68.16,87.51236 64.843411,88.282729 61.833562,88.729055 61.012954,88.572184 60.130547,88.403501 59.84,88.77879 59.84,90.087246 c 0,0.632704 0.193734,0.777989 1.2,0.899909 1.911322,0.231579 5.517149,-0.04962 7.579971,-0.59112 z M 56.10943,89.680389 c 0.08096,-0.132007 0.197101,-0.719253 0.258087,-1.305003 l 0.110886,-1.064999 -3.6792,-1.524691 C 50.775642,84.947119 48.67481,84.030457 48.130688,83.748673 47.141795,83.236555 47.141162,83.236785 46.639411,84.28897 l -0.501961,1.052635 2.611273,1.375903 c 2.572637,1.355541 6.56064,3.177321 6.992391,3.194227 0.121612,0.0048 0.287356,-0.09934 0.368316,-0.231346 z M 78.742205,85.722343 C 79.697994,84.99743 80.264,84.484831 80,84.583238 c -0.264,0.09842 -1.236,0.413737 -2.16,0.700735 -0.924,0.286993 -1.68,0.57181 -1.68,0.632927 0,0.352471 0.423043,1.123473 0.616442,1.123473 0.125385,0 1.009977,-0.593114 1.965763,-1.31803 z M 66.445786,84.02703 c 1.257184,-0.278674 2.580684,-0.506678 2.941113,-0.506678 0.360432,0 0.722007,-0.108 0.803501,-0.240001 0.08149,-0.132008 -2.070006,-0.244508 -4.781114,-0.250013 L 60.48,83.02033 v 0.867757 c 0,1.329782 0.537094,1.342291 5.965786,0.138943 z M 82.56,82.996768 c 0,-0.08801 -0.432,0.147613 -0.96,0.523584 -0.528,0.37597 -0.96,0.755586 -0.96,0.843585 0,0.08801 0.432,-0.147613 0.96,-0.523584 0.528,-0.375969 0.96,-0.755584 0.96,-0.843585 z M 43.576634,81.352549 c -0.190583,-0.06353 -1.507924,-0.813534 -2.927418,-1.666681 l -2.580899,-1.551176 -0.45801,0.8857 c -0.435277,0.841739 -0.407193,0.934917 0.565843,1.877445 0.563117,0.545459 1.815812,1.424651 2.783764,1.953755 l 1.75991,0.962009 0.601664,-1.172772 c 0.38593,-0.752253 0.477414,-1.214189 0.255146,-1.28828 z m 13.275174,1.067415 c -0.09271,-0.241601 -0.646294,-0.543133 -1.230186,-0.670074 -1.134902,-0.246732 -3.202982,-1.198293 -5.120208,-2.355897 -1.147616,-0.692919 -1.18718,-0.695561 -1.505596,-0.100595 -0.360295,0.673224 -0.0668,0.843571 5.244182,3.04374 2.459446,1.018871 2.977302,1.035293 2.611808,0.08282 z M 77.17632,81.581367 c 2.05856,-0.693483 4.214941,-2.102131 3.928205,-2.566083 -0.09308,-0.150611 -0.84768,0.142366 -1.676883,0.651063 -0.829204,0.508695 -2.299642,1.236002 -3.267642,1.616237 -0.968,0.38024 -1.82,0.751285 -1.893334,0.824549 -0.33864,0.338329 1.13519,0.07201 2.909654,-0.525766 z M 45.76,77.310765 c 0,-0.226479 -1.099104,-1.08338 -2.442454,-1.904229 -2.264944,-1.383984 -2.472349,-1.451561 -2.853834,-0.929845 -0.226262,0.309432 -0.37439,0.599596 -0.329178,0.644813 0.04522,0.04522 1.208196,0.723883 2.584397,1.50815 C 45.157635,78.01942 45.76,78.154332 45.76,77.310765 Z M 34.660221,75.739546 c -0.319123,-0.169857 -0.86257,-0.540675 -1.207661,-0.824041 -0.610102,-0.500972 -0.613885,-0.493102 -0.13688,0.284796 0.269808,0.440003 0.600976,0.986998 0.73593,1.215547 0.194336,0.329116 0.343478,0.334116 0.7171,0.02403 0.41066,-0.340821 0.396615,-0.431483 -0.108489,-0.700337 z m 2.746192,-3.218791 c 0.445853,-0.537223 -0.400941,-1.15932 -2.916042,-2.142275 -1.352649,-0.528647 -1.589897,-0.558209 -1.187481,-0.147959 0.369526,0.376718 3.347299,2.560674 3.697929,2.712135 0.02243,0.0097 0.204967,-0.180159 0.405594,-0.421901 z M 85.229107,34.007027 C 84.002381,32.670856 83.84,32.318363 83.84,30.99156 c 0,-1.763379 0.775712,-2.865246 3.101802,-4.405996 1.864019,-1.23468 3.124873,-1.271359 4.320688,-0.125692 0.807136,0.773291 0.89751,1.074114 0.89751,2.987503 0,1.96534 -0.09008,2.243254 -1.18097,3.643466 -2.231644,2.864434 -3.740518,3.104854 -5.749923,0.916184 z M 28.348446,33.575495 C 27.892801,33.033991 27.52,32.25957 27.52,31.854565 c 0,-1.8454 1.757583,-4.250211 3.620832,-4.954199 0.495457,-0.187198 1.656515,-0.340361 2.580131,-0.340361 1.422186,0 1.810951,0.137414 2.539168,0.897516 1.591219,1.660885 0.983965,4.725911 -1.164947,5.879885 -0.767446,0.412122 -4.139815,1.193738 -5.226738,1.211406 -0.38911,0.0063 -1.053867,-0.419346 -1.52,-0.973317 z"
       id="path170" />
  </g>
</svg>
