<?xml version="1.0" encoding="UTF-8" standalone="no"?>
<!-- Created with Inkscape (http://www.inkscape.org/) -->

<svg
   version="1.1"
   id="svg2"
   width="128"
   height="128"
   viewBox="0 0 128 128"
   xmlns="http://www.w3.org/2000/svg"
   xmlns:svg="http://www.w3.org/2000/svg">
  <defs
     id="defs6" />
  <g
     id="g8">
    <path
       style="fill:#000000;stroke-width:0.320001"
       d="M 70.318704,81.73247 C 70.215325,81.629089 66.339325,81.432013 61.70537,81.294517 55.088752,81.0982 52.627376,80.902392 50.24,80.382439 44.337466,79.096909 43.256426,78.99343 39.52,79.356287 29.842555,80.2961 24.146158,80.105036 22.64,78.790113 c -0.74347,-0.649074 -0.709785,-1.75497 0.07509,-2.46528 0.534494,-0.483713 0.90198,-0.532158 2.32,-0.305833 2.52618,0.403194 7.155135,0.353162 12.965644,-0.140146 2.860406,-0.242846 5.812406,-0.356995 6.56,-0.253658 3.716192,0.513651 5.714742,0.860006 7.759264,1.344705 2.367389,0.561242 10.176621,0.95881 25.731238,1.309977 6.741818,0.152204 9.57552,0.07918 14.009623,-0.361007 8.402381,-0.834138 10.979141,-0.458263 10.979141,1.601546 0,1.31592 -1.02537,1.851387 -3.102198,1.620022 -1.047063,-0.116645 -3.862688,0.0084 -6.451981,0.286518 -4.520547,0.485569 -22.746711,0.725926 -23.167117,0.305513 z M 60.091008,58.640249 c -0.36839,-0.422586 -0.537722,-1.737871 -0.690061,-5.360043 -0.286563,-6.813582 -0.191517,-6.560053 -2.459366,-6.560053 -1.025095,0 -1.952807,0.144 -2.061581,0.320001 -0.35175,0.569147 -1.629821,0.339824 -2.344221,-0.420627 -0.897091,-0.95492 -0.882313,-1.85259 0.04485,-2.723618 0.642758,-0.603843 1.118467,-0.698063 3.6,-0.713039 1.572656,-0.0095 4.011376,-0.153529 5.419376,-0.320083 1.408,-0.166558 3.965437,-0.395815 5.68319,-0.50946 2.739696,-0.181257 3.201386,-0.135864 3.76,0.369679 1.462365,1.323432 0.373424,3.028444 -1.948387,3.050697 -0.778141,0.0075 -2.566803,0.187461 -3.974803,0.400003 L 62.56,46.560151 l 0.211965,1.600013 c 0.116582,0.880007 0.224582,3.485711 0.24,5.79045 0.02458,3.675024 -0.04394,4.255576 -0.557162,4.720037 -0.7592,0.687072 -1.74944,0.674336 -2.363795,-0.0304 z M 30.324434,35.920066 C 29.63062,35.134752 29.331828,32.922857 29.72648,31.493534 30.203818,29.764746 32.17407,27.84 33.466397,27.84 c 0.813821,0 1.247517,0.281918 2.175056,1.413866 C 36.661258,30.498413 36.8,30.87865 36.8,32.428955 c 0,1.671461 -0.06817,1.81958 -1.3376,2.906172 -1.159885,0.992823 -1.557194,1.144943 -2.990403,1.144943 -1.172288,0 -1.796645,-0.162812 -2.147563,-0.560004 z M 87.89111,35.57341 c -0.613331,-0.640184 -0.923814,-1.37262 -1.056393,-2.492062 -0.166576,-1.406497 -0.08883,-1.702984 0.689011,-2.6274 1.181706,-1.404388 3.027677,-2.293945 4.760298,-2.293945 1.163193,0 1.553084,0.157086 2.092748,0.843161 0.773744,0.983663 0.862007,2.644247 0.207796,3.909366 -0.25049,0.484392 -1.111271,1.485251 -1.912852,2.224127 -1.8543,1.709246 -3.424092,1.852662 -4.780608,0.436753 z"
       id="path170" />
  </g>
</svg>
