<?xml version="1.0" encoding="UTF-8" standalone="no"?>
<!-- Created with Inkscape (http://www.inkscape.org/) -->

<svg
   version="1.1"
   id="svg2"
   width="192"
   height="192"
   viewBox="0 0 192 192"
   xmlns="http://www.w3.org/2000/svg"
   xmlns:svg="http://www.w3.org/2000/svg">
  <defs
     id="defs6" />
  <g
     id="g8">
    <path
       style="fill:#000000;stroke-width:0.32"
       d="m 46.4,184.93858 c -2.024,-0.13547 -4.976,-0.40904 -6.56,-0.60793 -1.584,-0.19889 -4.176,-0.48342 -5.76,-0.63227 -2.892136,-0.27178 -8.350736,-0.96545 -13.12,-1.66727 -1.408,-0.2072 -3.929184,-0.34374 -5.602631,-0.30343 -2.727434,0.0657 -3.157595,-0.004 -4.152385,-0.67458 -0.610365,-0.41132 -1.4371808,-1.23374 -1.837369,-1.82758 L 8.64,178.14581 8.654052,164.03311 c 0.00773,-7.76201 0.1548349,-15.19272 0.3269031,-16.51273 0.1720678,-1.32 0.4510899,-6.14402 0.6200489,-10.72003 0.1689594,-4.57602 0.52022,-9.76003 0.780579,-11.52003 0.39263,-2.65413 0.421271,-4.72844 0.167899,-12.16004 C 10.381468,108.19227 10.093129,101.92825 9.9087299,99.200247 9.7199466,96.407382 9.5673917,82.705404 9.5595731,67.840161 9.5486682,47.107547 9.448576,40.650081 9.0933245,37.760078 8.5576566,33.402376 8.3807114,22.977636 8.7619994,18.240025 9.1569814,13.33226 10.459907,11.361803 14.247013,9.9448614 15.929772,9.3152586 16.658425,9.2800003 27.987082,9.2800003 c 11.890668,0 11.998572,0.00597 17.827996,0.9887057 5.385354,0.90786 6.296663,0.975687 11.144922,0.829511 5.526038,-0.166613 13.899466,-0.599004 22.56,-1.1649656 15.790102,-1.0318739 27.96334,-1.0340096 36.16,-0.00634 3.82537,0.4796106 18.18775,1.1200656 23.84163,1.0631576 2.72889,-0.02747 7.12089,-0.298387 9.76,-0.602044 4.00028,-0.4602759 6.61542,-0.522908 15.72301,-0.376564 11.672,0.18755 11.9334,0.224083 13.43793,1.878145 1.68257,1.849797 1.71734,2.102544 1.71872,12.494548 9.6e-4,7.670427 0.11391,10.330978 0.5404,12.735926 0.74445,4.197836 0.71862,13.985821 -0.0528,20.000055 -0.4804,3.745418 -0.58785,7.366887 -0.65526,22.085962 -0.0848,18.502543 -0.22099,22.783603 -0.98251,30.874183 -0.25677,2.72801 -0.5144,9.35203 -0.5725,14.72004 -0.0689,6.36911 -0.23414,10.09355 -0.47549,10.72003 -0.47623,1.23609 -0.28775,29.09269 0.2548,37.66055 0.32558,5.1414 0.31306,6.10668 -0.0892,6.88002 -0.51755,0.99495 -1.6128,2.07663 -2.63444,2.60178 -0.77231,0.39698 -25.79418,-0.0903 -28.45429,-0.55406 -1.83369,-0.31974 -19.4899,0.0881 -27.2,0.62824 -2.816,0.1973 -7.208,0.47154 -9.76,0.60944 -2.552,0.13791 -6.872,0.52151 -9.6,0.85246 -4.965309,0.60235 -6.844374,0.63446 -23.44,0.40062 -3.653526,-0.0515 -7.178522,0.0694 -8.663155,0.29715 -2.755655,0.42266 -15.913978,0.44784 -21.976845,0.042 z m 22.4,-10.85735 c 2.32848,-0.26977 5.52128,-0.31832 10.4,-0.1581 11.033763,0.36237 13.10608,0.32907 18.4,-0.29575 2.728,-0.32198 7.048,-0.70744 9.6,-0.8566 2.552,-0.14916 6.728,-0.41244 9.28,-0.58505 8.87954,-0.6006 30.70134,-1.06054 33.27425,-0.70132 1.32316,0.18472 5.78975,0.43239 9.92575,0.55038 l 7.52,0.21454 -0.0968,-19.42874 c -0.0641,-12.85641 0.0158,-19.77236 0.23623,-20.44451 0.18536,-0.56531 0.40359,-5.38608 0.49212,-10.87111 0.0875,-5.42047 0.3704,-11.90049 0.62871,-14.40004 0.65526,-6.34065 0.85004,-12.858415 0.96302,-32.22475 0.0789,-13.519419 0.20313,-17.581149 0.6363,-20.800057 0.67743,-5.033963 0.69484,-10.562803 0.0443,-14.080039 -0.3734,-2.019003 -0.50316,-4.832153 -0.50348,-10.915457 l -4e-4,-8.195448 -1.68,-0.201792 c -3.13252,-0.376261 -11.67932,-0.20976 -15.96956,0.311105 -7.85075,0.953135 -28.70299,0.608472 -41.07044,-0.678848 -7.26758,-0.756476 -16.117104,-0.596381 -36.8,0.665751 -4.752,0.289981 -12.392646,0.594978 -16.979213,0.677772 -8.104077,0.146288 -8.505597,0.123512 -14.24,-0.807735 -5.542605,-0.9001 -6.420093,-0.956879 -14.455935,-0.935407 l -8.555148,0.02285 -0.172512,0.988574 c -0.09488,0.543716 -0.292475,1.661872 -0.439094,2.48479 -0.291473,1.635921 0.09453,9.921161 0.593486,12.738761 0.186715,1.054371 0.314156,12.58821 0.316509,28.645142 0.0025,17.280591 0.133076,28.365705 0.365543,31.040085 0.198882,2.288006 0.397384,5.744023 0.441117,7.680023 0.04373,1.93601 0.184818,7.48002 0.313523,12.32004 0.197333,7.42078 0.150863,9.35173 -0.296496,12.32003 -0.291779,1.93601 -0.663069,7.26402 -0.825089,11.84004 -0.16202,4.57601 -0.436595,9.32803 -0.610167,10.56003 -0.173571,1.23199 -0.320296,6.29225 -0.326054,11.24502 l -0.01047,9.005 1.04,0.16771 c 2.57734,0.41562 10.342697,1.39871 19.44,2.4611 3.267299,0.38156 9.089402,0.929 11.52,1.08318 3.407341,0.21616 14.278595,-0.0564 17.6,-0.44118 z"
       id="path170" />
  </g>
</svg>
