<?xml version="1.0" standalone="no"?>
<!DOCTYPE svg PUBLIC "-//W3C//DTD SVG 20010904//EN"
 "http://www.w3.org/TR/2001/REC-SVG-20010904/DTD/svg10.dtd">
<svg version="1.0" xmlns="http://www.w3.org/2000/svg"
 width="300.000000pt" height="480.000000pt" viewBox="0 0 300.000000 480.000000"
 preserveAspectRatio="xMidYMid meet">

<g transform="translate(0.000000,480.000000) scale(0.100000,-0.100000)"
fill="#000000" stroke="none">
<path d="M1342 4516 c9 -11 -20 -35 -43 -36 -8 0 -31 -11 -50 -25 -19 -14 -54
-31 -78 -37 -25 -6 -58 -24 -73 -41 -22 -21 -32 -26 -42 -18 -9 8 -13 7 -13
-4 0 -8 6 -16 14 -19 24 -10 14 -36 -22 -57 -36 -21 -60 -74 -44 -94 4 -6 8
-20 8 -30 -1 -11 4 -53 9 -94 16 -111 5 -210 -24 -239 -29 -28 -30 -55 -3
-146 28 -94 51 -138 91 -171 31 -26 33 -33 39 -109 3 -46 14 -98 24 -121 32
-69 38 -189 11 -229 -9 -14 -101 -81 -204 -149 -103 -68 -213 -145 -244 -170
-32 -26 -58 -45 -58 -43 0 3 -13 -9 -30 -25 -16 -17 -34 -28 -40 -24 -5 3 -10
2 -10 -4 0 -10 -112 -78 -119 -72 -2 1 -7 -2 -10 -8 -8 -13 -81 -44 -81 -34 0
4 -7 -2 -15 -13 -8 -10 -15 -15 -15 -9 0 5 -16 -13 -35 -40 -20 -28 -42 -58
-50 -67 -8 -10 -13 -18 -10 -18 3 0 -1 -16 -10 -36 -34 -81 -62 -310 -41 -331
9 -9 7 -113 -2 -113 -4 0 -8 -8 -9 -17 -1 -10 -16 -51 -32 -92 -66 -157 -66
-160 -56 -451 11 -311 24 -413 68 -510 38 -85 107 -137 157 -118 19 7 237 25
338 28 12 0 10 -28 -5 -70 -15 -43 -16 -187 -2 -239 13 -49 3 -125 -31 -236
-11 -33 -22 -77 -26 -97 -4 -24 -13 -39 -25 -43 -10 -4 -19 -13 -19 -21 0 -12
131 -14 940 -14 533 0 940 4 940 9 0 5 -7 14 -15 21 -11 9 -14 23 -9 45 4 23
2 34 -9 38 -10 4 -20 42 -32 121 l-19 115 27 50 c30 55 49 133 49 203 0 46 0
47 38 53 21 4 101 11 177 15 156 10 163 11 160 19 -1 3 7 18 16 32 52 77 96
244 112 418 3 35 10 85 16 110 15 65 37 305 32 338 -16 101 -40 202 -69 296
-33 104 -34 113 -32 260 2 281 -57 415 -208 476 -104 42 -203 89 -246 119 -24
16 -85 52 -136 81 -51 29 -98 58 -105 64 -7 7 -19 13 -27 15 -24 5 -193 111
-236 147 l-39 33 2 108 c1 60 5 147 9 193 6 75 10 87 34 108 35 29 79 122 90
188 5 27 10 55 11 60 7 19 -22 72 -46 85 -13 7 -21 18 -18 26 3 7 6 44 8 81 2
38 5 89 6 116 2 26 1 47 -3 47 -4 0 -18 34 -30 74 -19 62 -32 84 -77 131 -99
103 -213 164 -316 171 -112 7 -148 14 -170 32 -11 9 -17 13 -13 8z"/>
</g>
</svg>
